<?xml version="1.0" standalone="no"?>
<!DOCTYPE svg PUBLIC "-//W3C//DTD SVG 20010904//EN"
 "http://www.w3.org/TR/2001/REC-SVG-20010904/DTD/svg10.dtd">
<svg version="1.0" xmlns="http://www.w3.org/2000/svg"
 width="1024.000000pt" height="325.000000pt" viewBox="0 0 1024.000000 325.000000"
 preserveAspectRatio="xMidYMid meet">
<metadata>
Created by potrace 1.16, written by Peter Selinger 2001-2019
</metadata>
<g transform="translate(0.000000,325.000000) scale(0.100000,-0.100000)"
fill="#000000" stroke="none">
<path d="M4204 3236 c-7 -7 -17 -37 -23 -66 -15 -70 -34 -90 -83 -90 -46 0
-92 -38 -159 -131 -78 -110 -101 -130 -274 -243 -181 -119 -254 -156 -306
-156 -27 0 -48 -16 -138 -102 -58 -57 -108 -105 -111 -108 -3 -3 -32 -27 -65
-55 -33 -27 -73 -62 -90 -77 -16 -16 -33 -28 -37 -28 -4 0 -40 -29 -80 -63
-40 -35 -89 -75 -109 -88 -107 -70 -185 -126 -223 -161 -39 -33 -50 -38 -95
-38 -32 0 -67 -8 -91 -20 -22 -11 -45 -20 -52 -20 -8 0 -54 -25 -103 -55 -50
-30 -94 -55 -98 -55 -4 0 -18 -10 -31 -22 -20 -20 -61 -56 -153 -135 -53 -45
-70 -58 -159 -119 -102 -71 -118 -91 -112 -135 4 -23 0 -30 -21 -38 -14 -5
-48 -31 -76 -56 -261 -245 -488 -459 -525 -495 -14 -14 -47 -43 -75 -65 -27
-22 -63 -52 -80 -67 -16 -16 -34 -28 -40 -28 -16 -1 -139 -91 -192 -140 -56
-53 -146 -120 -161 -120 -6 0 -12 -4 -14 -8 -8 -21 -108 -55 -173 -59 -38 -3
-80 -11 -92 -19 -12 -8 -42 -14 -65 -15 -24 -1 -54 -4 -68 -8 -34 -9 -39 -50
-9 -77 18 -16 36 -19 113 -19 120 1 235 31 386 103 83 40 298 157 375 205 130
80 633 419 660 445 17 15 44 37 60 47 17 11 53 38 80 61 28 22 123 96 212 163
90 67 166 128 170 134 5 7 19 20 33 29 14 8 39 28 55 43 99 89 234 187 274
200 l24 7 -22 -30 c-11 -17 -21 -33 -21 -37 0 -4 -24 -35 -53 -68 -29 -34 -64
-78 -77 -97 -13 -19 -61 -73 -106 -120 -110 -112 -154 -172 -157 -206 -2 -25
2 -29 23 -29 15 0 30 -9 38 -22 15 -28 53 -39 81 -24 11 6 38 37 60 69 44 64
83 102 107 102 9 0 79 62 156 138 76 75 155 146 174 158 19 11 55 41 82 65 26
25 97 82 157 128 246 185 256 193 253 209 -2 9 -14 19 -27 22 -23 5 -20 9 35
56 100 85 283 189 301 171 19 -20 -185 -431 -249 -501 -10 -11 -20 -28 -24
-38 -3 -10 -9 -18 -13 -18 -4 0 -13 -11 -19 -25 -18 -40 -174 -241 -254 -329
-10 -11 -18 -26 -18 -34 0 -13 -35 -70 -51 -82 -3 -3 -18 -24 -32 -47 -14 -23
-31 -44 -37 -48 -5 -3 -10 -21 -10 -39 0 -38 -10 -48 -98 -100 -63 -38 -112
-90 -112 -119 0 -10 5 -17 11 -17 6 0 1 -12 -10 -26 -13 -16 -21 -41 -21 -63
0 -21 -12 -59 -30 -91 -38 -72 -39 -100 -2 -100 19 0 35 10 52 33 31 41 298
300 316 307 7 3 62 52 121 110 59 58 122 112 138 120 17 8 84 51 150 96 164
111 319 204 359 215 19 5 53 27 78 48 24 21 61 48 81 60 l37 21 -4 -23 c-16
-81 -31 -152 -49 -217 -11 -41 -23 -127 -28 -190 -8 -122 -14 -154 -50 -265
-31 -99 -36 -165 -13 -182 47 -34 113 7 134 84 18 66 19 67 45 38 29 -30 54
-32 89 -4 31 25 34 64 6 81 -23 15 -25 44 -6 163 11 71 13 76 19 45 4 -19 8
-55 9 -80 3 -41 5 -45 31 -48 15 -2 27 -4 27 -5 0 -16 31 -170 35 -177 3 -6
14 -10 23 -10 17 0 28 -19 53 -92 28 -80 78 -110 93 -55 16 62 7 108 -61 315
-19 57 -33 106 -30 108 2 2 30 -25 61 -61 62 -69 99 -84 111 -45 5 16 -7 38
-47 88 -98 121 -128 180 -128 247 0 38 3 45 20 45 25 0 25 11 -1 62 -32 62
-25 117 46 338 23 74 53 167 65 205 12 39 33 85 47 104 l26 34 15 -29 c18 -34
30 -44 57 -44 20 0 88 -47 179 -124 88 -73 258 -196 271 -196 4 0 26 -16 49
-35 24 -19 50 -35 59 -35 9 0 19 -5 23 -11 3 -6 25 -19 49 -29 23 -10 85 -48
138 -84 92 -64 275 -161 399 -211 48 -20 75 -24 136 -22 60 1 83 -2 104 -17
20 -13 41 -17 75 -14 45 3 48 2 56 -27 23 -75 17 -69 149 -130 20 -9 60 -42
90 -73 162 -172 251 -236 389 -282 74 -24 112 -25 129 -5 23 27 7 48 -55 72
-33 12 -71 28 -85 35 -39 20 -121 80 -116 85 6 6 84 -34 123 -63 17 -13 38
-24 45 -24 7 0 36 -14 63 -30 28 -16 56 -30 64 -30 7 0 40 -20 74 -45 62 -47
99 -55 105 -23 5 25 -26 66 -62 83 -17 8 -49 31 -71 50 -39 34 -39 35 -10 25
102 -37 395 -219 530 -329 39 -31 86 -68 105 -81 19 -13 37 -27 40 -30 3 -3
23 -18 45 -35 22 -16 49 -37 59 -47 27 -25 145 -60 187 -56 32 3 34 6 37 41 3
36 -2 44 -57 102 -34 35 -61 72 -61 83 0 22 -205 189 -345 282 -44 29 -84 58
-90 64 -5 6 -22 17 -37 25 -48 24 -137 120 -194 206 -57 87 -69 97 -103 88
-15 -4 -21 -13 -21 -34 0 -30 35 -115 51 -125 5 -3 9 -9 9 -13 0 -4 -24 0 -52
10 -40 13 -66 31 -106 76 -51 55 -54 60 -48 100 5 38 3 44 -23 63 -16 11 -34
20 -39 20 -6 0 -17 8 -24 18 -7 10 -30 22 -51 25 -94 15 -374 167 -485 263
-18 16 -49 50 -69 77 -33 45 -64 60 -78 37 -11 -18 -23 -11 -86 49 -34 33 -65
59 -68 58 -4 -1 -45 16 -91 37 -46 22 -79 41 -73 43 13 5 82 -26 130 -57 50
-33 49 -6 -3 50 -26 27 -51 50 -56 50 -18 0 -205 131 -252 177 l-49 48 33 3
c32 3 42 1 155 -44 33 -13 85 -30 116 -39 31 -9 65 -23 76 -33 10 -9 54 -69
98 -132 80 -118 137 -180 164 -180 25 1 51 25 51 47 0 12 -16 44 -35 72 l-35
51 29 0 c18 0 34 7 40 17 8 14 10 15 11 3 0 -8 9 -21 20 -28 11 -7 20 -19 20
-28 0 -14 8 -16 44 -12 55 7 95 -15 129 -69 25 -39 109 -122 186 -183 228
-182 416 -360 439 -416 15 -35 63 -67 86 -58 9 3 16 10 16 15 0 16 27 10 110
-26 45 -19 87 -35 93 -35 15 0 166 -77 187 -94 8 -7 35 -24 60 -37 25 -13 54
-31 65 -40 20 -17 272 -169 279 -169 3 0 37 -19 78 -43 40 -24 105 -61 143
-82 39 -20 89 -49 112 -62 46 -27 86 -27 91 -1 4 23 -36 57 -126 108 -42 24
-106 64 -142 89 l-64 46 34 6 c57 10 90 27 90 46 0 10 -21 40 -45 66 -25 27
-45 50 -45 53 0 14 348 -207 370 -236 7 -9 59 -36 98 -50 17 -7 32 -16 32 -20
0 -17 34 -20 51 -4 24 22 24 49 -1 76 -11 12 -18 23 -16 25 2 2 32 -5 67 -16
78 -26 79 -26 79 4 0 19 -11 33 -47 55 -26 17 -55 30 -64 30 -23 0 -97 57
-185 141 -40 39 -83 71 -100 74 -71 16 -86 26 -80 56 9 45 2 49 -169 109 -49
17 -101 36 -115 42 -14 6 -34 14 -45 18 -11 5 -36 15 -57 24 -20 9 -43 16 -51
16 -11 0 -15 8 -14 26 2 27 -15 38 -283 190 -39 23 -78 54 -97 81 -38 50 -40
59 -15 67 11 4 36 38 58 77 21 39 40 66 42 61 1 -5 -6 -26 -18 -46 -25 -46
-25 -61 0 -96 22 -31 75 -49 93 -31 7 7 17 44 24 83 14 88 24 100 58 68 22
-21 29 -23 55 -13 21 8 30 8 33 0 2 -8 16 -8 46 2 48 14 52 11 95 -69 124
-233 238 -361 301 -336 23 9 18 33 -13 55 -16 11 -42 39 -58 63 -16 23 -35 50
-43 59 -14 18 -42 89 -34 89 5 0 126 -81 133 -89 8 -10 53 -38 220 -138 169
-101 167 -100 245 -158 93 -69 222 -146 287 -172 55 -22 179 -79 288 -133 43
-20 348 -179 408 -211 32 -17 45 -20 54 -11 18 18 -5 56 -46 76 -106 50 -1 48
139 -3 113 -42 133 -45 183 -33 36 10 73 10 152 2 58 -6 124 -9 148 -5 36 5
42 10 42 30 0 26 -16 32 -120 52 -39 8 -46 12 -50 37 -4 24 -13 32 -50 43 -25
7 -72 22 -105 32 -33 11 -85 24 -115 31 -110 25 -167 44 -256 87 -88 43 -124
47 -124 17 0 -8 -4 -14 -9 -14 -10 0 -85 25 -116 39 -146 65 -236 117 -300
176 -27 26 -71 56 -96 69 -50 25 -155 106 -234 181 -96 91 -569 550 -608 590
-50 52 -162 223 -199 303 -31 69 -37 158 -11 199 18 30 17 63 -2 63 -35 0
-117 -67 -142 -115 -9 -16 -27 -38 -42 -50 -47 -36 -261 -237 -420 -394 -86
-85 -173 -165 -193 -179 -37 -24 -38 -24 -67 -6 -16 11 -49 37 -73 59 -93 86
-178 155 -308 252 -74 55 -148 112 -165 127 -16 15 -46 39 -65 54 -19 15 -37
29 -40 32 -3 3 -32 27 -65 55 -75 62 -170 157 -261 262 -57 66 -77 100 -108
177 -32 82 -41 96 -67 105 -59 20 -73 9 -345 -289 -32 -35 -117 -121 -189
-191 -103 -101 -133 -125 -146 -118 -28 14 -109 100 -135 141 -13 20 -64 72
-114 114 -88 75 -119 118 -136 189 -4 17 -15 40 -25 53 -10 13 -21 43 -25 68
-6 44 -6 44 -47 44 -60 0 -124 36 -202 115 -72 71 -102 121 -160 268 -26 63
-29 67 -59 67 -17 -1 -36 -7 -42 -14z"/>
</g>
</svg>
